<!--?xml version="1.0" standalone="no"?-->
              <svg id="sw-js-blob-svg" viewBox="0 0 100 100" xmlns="http://www.w3.org/2000/svg" version="1.1">
                    <defs> 
                        <linearGradient id="sw-gradient" x1="0" x2="1" y1="1" y2="0">
                            <stop id="stop1" stop-color="rgba(115.618, 50.536, 178.799, 1)" offset="0%"></stop>
                            <stop id="stop2" stop-color="rgba(31, 251, 172.75, 1)" offset="100%"></stop>
                        </linearGradient>
                    </defs>
                <path fill="url(#sw-gradient)" d="M9.9,-13C13.6,-8.7,18,-6.3,22.8,-0.8C27.5,4.7,32.7,13.3,31,19.4C29.2,25.4,20.5,29,11.7,32.2C2.9,35.4,-6,38.2,-9.8,33.8C-13.7,29.5,-12.4,18,-15.9,10.1C-19.3,2.2,-27.5,-2,-28.9,-7.1C-30.4,-12.1,-25.1,-17.9,-19.2,-21.8C-13.2,-25.8,-6.6,-27.9,-1.8,-25.7C3.1,-23.6,6.2,-17.3,9.9,-13Z" width="100%" height="100%" transform="translate(50 50)" stroke-width="0" style="transition: all 0.3s ease 0s;" stroke="url(#sw-gradient)"></path>
              </svg>